Coordinates
version=1
nRows=38
nColumns=12
inDegrees=yes

Units are S.I. units (second, meters, Newtons, ...)
Angles are in degrees

endheader
time	SC_y	SC_z	SC_x	AC_y	AC_z	AC_x	GH_y	GH_z	GH_yy	EL_x	PS_y
       0.0              -31.29          34.28         0.8105          64.44         -13.93          19.02         -61.72           37.2         -124.8          6.552           57.3
   0.01102              -31.29          34.27         0.8142          64.43         -13.93          19.01         -61.72           37.2         -124.8          6.561           57.3
   0.02205              -31.29          34.27         0.8182          64.43         -13.93           19.0         -61.73          37.19         -124.7          6.571          57.29
   0.03307              -31.29          34.27         0.8224          64.43         -13.92           19.0         -61.73          37.18         -124.7          6.582          57.29
   0.04409              -31.29          34.26         0.8269          64.43         -13.92          18.99         -61.74          37.18         -124.6          6.593          57.28
   0.05512              -31.29          34.26         0.8317          64.42         -13.92          18.99         -61.74          37.17         -124.6          6.605          57.27
   0.06614              -31.29          34.26         0.8368          64.42         -13.91          18.98         -61.75          37.16         -124.5          6.618          57.27
   0.07716              -31.29          34.25         0.8422          64.41         -13.91          18.97         -61.76          37.15         -124.5          6.632          57.26
   0.08819              -31.29          34.25         0.8481          64.41         -13.91          18.96         -61.77          37.14         -124.4          6.647          57.25
   0.09921              -31.29          34.24         0.8544          64.41          -13.9          18.96         -61.77          37.13         -124.3          6.663          57.24
    0.1102              -31.29          34.24         0.8611           64.4          -13.9          18.95         -61.78          37.11         -124.3           6.68          57.23
    0.1213              -31.29          34.23         0.8684           64.4         -13.89          18.94         -61.79           37.1         -124.2          6.699          57.22
    0.1323              -31.29          34.22         0.8762          64.39         -13.89          18.93          -61.8          37.09         -124.1          6.719          57.21
    0.1433              -31.29          34.22         0.8846          64.38         -13.88          18.92         -61.81          37.07         -124.0           6.74           57.2
    0.1543              -31.29          34.21         0.8938          64.38         -13.87           18.9         -61.83          37.06         -123.9          6.763          57.19
    0.1654               -31.3           34.2         0.9037          64.37         -13.87          18.89         -61.84          37.04         -123.8          6.788          57.17
    0.1764               -31.3          34.19         0.9145          64.36         -13.86          18.87         -61.85          37.02         -123.7          6.816          57.16
    0.1874               -31.3          34.18         0.9262          64.35         -13.85          18.86         -61.87           37.0         -123.6          6.846          57.14
    0.1984               -31.3          34.17          0.939          64.34         -13.84          18.84         -61.89          36.98         -123.5          6.878          57.12
    0.2094               -31.3          34.16         0.9531          64.33         -13.83          18.82          -61.9          36.95         -123.3          6.914           57.1
    0.2205               -31.3          34.15         0.9685          64.32         -13.82           18.8         -61.93          36.92         -123.2          6.953          57.08
    0.2315               -31.3          34.14         0.9855          64.31         -13.81          18.78         -61.95          36.89         -123.0          6.996          57.06
    0.2425              -31.31          34.12          1.004           64.3          -13.8          18.75         -61.97          36.86         -122.8          7.044          57.03
    0.2535              -31.31          34.11          1.025          64.28         -13.78          18.73          -62.0          36.82         -122.6          7.096           57.0
    0.2646              -31.31          34.09          1.048          64.26         -13.77          18.69         -62.03          36.78         -122.4          7.155          56.97
    0.2756              -31.31          34.07          1.074          64.25         -13.75          18.66         -62.07          36.74         -122.1          7.221          56.94
    0.2866              -31.32          34.05          1.103          64.23         -13.73          18.62          -62.1          36.68         -121.8          7.294           56.9
    0.2976              -31.32          34.02          1.135           64.2         -13.71          18.58         -62.15          36.63         -121.5          7.376          56.85
    0.3087              -31.33          33.99          1.172          64.17         -13.68          18.53          -62.2          36.56         -121.1          7.469           56.8
    0.3197              -31.33          33.96          1.213          64.14         -13.65          18.47         -62.25          36.49         -120.7          7.575          56.74
    0.3307              -31.34          33.92          1.261          64.11         -13.62          18.41         -62.31           36.4         -120.2          7.696          56.68
    0.3417              -31.34          33.88          1.315          64.07         -13.58          18.33         -62.39          36.31         -119.7          7.835           56.6
    0.3528              -31.35          33.83          1.378          64.03         -13.53          18.25         -62.47          36.19         -119.0          7.994          56.51
    0.3638              -31.36          33.77          1.452          63.97         -13.48          18.15         -62.57          36.06         -118.3           8.18          56.41
    0.3748              -31.37           33.7          1.537          63.91         -13.42          18.04         -62.68          35.91         -117.4          8.398          56.29
    0.3858              -31.38          33.62          1.638          63.84         -13.35           17.9         -62.81          35.73         -116.4          8.654          56.15
    0.3968              -31.39          33.53          1.758          63.75         -13.27          17.74         -62.97          35.52         -115.2          8.959          55.98
    0.4079              -31.41          33.42          1.902          63.65         -13.17          17.54         -63.17          35.26         -113.7          9.324          55.78
